<?xml version="1.0" encoding="iso-8859-1"?>
<!-- Generator: Adobe Illustrator 16.0.0, SVG Export Plug-In . SVG Version: 6.00 Build 0)  -->
<!DOCTYPE svg PUBLIC "-//W3C//DTD SVG 1.1//EN" "http://www.w3.org/Graphics/SVG/1.1/DTD/svg11.dtd">
<svg version="1.1" id="Capa_1" xmlns="http://www.w3.org/2000/svg" xmlns:xlink="http://www.w3.org/1999/xlink" x="0px" y="0px"
	 width="598.466px" height="598.466px" viewBox="0 0 598.466 598.466" style="enable-background:new 0 0 598.466 598.466;"
	 xml:space="preserve">
<g>
	<g>
		<path d="M58.64,500.586h211.267c4.544,6.361,9.623,12.359,15.221,17.958c13.026,13.026,28.207,23.258,45.118,30.411
			c17.532,7.416,36.132,11.175,55.28,11.175c19.149,0,37.748-3.76,55.28-11.175c16.912-7.153,32.092-17.385,45.118-30.411
			c5.599-5.599,10.677-11.597,15.221-17.958h38.681c32.059,0,58.141-26.082,58.141-58.141V142.566
			c0-32.059-26.082-58.14-58.141-58.14H323.819l-10.096-17.28c-5.115-8.755-12.467-16.05-21.261-21.097
			c-8.793-5.046-18.8-7.714-28.939-7.714H58.64c-32.059,0-58.14,26.082-58.14,58.14v30.791v298.165v17.015
			C0.5,474.504,26.582,500.586,58.64,500.586z M440.611,500.586c-15.756,10.549-34.701,16.704-55.086,16.704
			c-20.386,0-39.331-6.155-55.087-16.704c-15.683-10.501-28.199-25.357-35.825-42.84c-5.292-12.13-8.233-25.521-8.233-39.6
			c0-54.756,44.389-99.145,99.145-99.145c54.755,0,99.144,44.389,99.144,99.145c0,14.079-2.941,27.47-8.231,39.6
			C468.812,475.228,456.296,490.085,440.611,500.586z M43.34,425.431V127.266V96.475c0-8.45,6.85-15.3,15.3-15.3h204.883
			c5.438,0,10.468,2.886,13.21,7.582l18.068,30.927c2.743,4.695,7.773,7.582,13.21,7.582h231.812c8.45,0,15.3,6.85,15.3,15.3
			v299.879c0,8.45-6.85,15.301-15.3,15.301H521.9c3.721-12.805,5.608-26.063,5.608-39.6c0-19.149-3.76-37.748-11.175-55.279
			c-7.153-16.913-17.385-32.093-30.411-45.118c-13.025-13.026-28.206-23.258-45.118-30.411
			c-17.531-7.416-36.131-11.175-55.279-11.175c-19.149,0-37.748,3.76-55.28,11.175c-16.912,7.153-32.092,17.385-45.118,30.411
			c-13.026,13.025-23.257,28.206-30.411,45.118c-7.416,17.531-11.175,36.13-11.175,55.279c0,13.536,1.888,26.795,5.609,39.6H58.64
			c-8.45,0-15.3-6.851-15.3-15.301V425.431z"/>
		<path d="M385.525,560.63c-19.219,0-37.883-3.773-55.475-11.214c-16.974-7.18-32.207-17.447-45.277-30.519
			c-5.518-5.519-10.605-11.51-15.124-17.812H58.64C26.306,501.086,0,474.781,0,442.446V96.475c0-32.334,26.306-58.64,58.64-58.64
			h204.883c10.227,0,20.32,2.69,29.188,7.78c8.869,5.091,16.284,12.449,21.443,21.278l9.951,17.032h215.719
			c32.335,0,58.641,26.306,58.641,58.64v299.879c0,32.335-26.306,58.641-58.641,58.641h-38.424
			c-4.52,6.304-9.607,12.295-15.124,17.812c-13.071,13.071-28.305,23.34-45.277,30.519
			C423.406,556.857,404.741,560.63,385.525,560.63z M58.64,38.835C26.857,38.835,1,64.692,1,96.475v345.971
			c0,31.783,25.857,57.641,57.64,57.641h211.524l0.149,0.209c4.524,6.334,9.627,12.354,15.167,17.896
			c12.979,12.979,28.105,23.175,44.958,30.305c17.469,7.389,36.002,11.135,55.086,11.135c19.082,0,37.615-3.746,55.086-11.136
			c16.853-7.128,31.979-17.323,44.959-30.304c5.539-5.539,10.642-11.56,15.167-17.896l0.15-0.209h38.938
			c31.783,0,57.641-25.857,57.641-57.641V142.566c0-31.783-25.857-57.64-57.641-57.64H323.532l-10.24-17.528
			c-5.071-8.679-12.36-15.912-21.078-20.916c-8.717-5.003-18.638-7.647-28.69-7.647H58.64z M385.525,517.791
			c-19.815,0-38.96-5.806-55.365-16.789c-15.917-10.658-28.367-25.546-36.005-43.055c-5.49-12.587-8.274-25.978-8.274-39.8
			c0-54.944,44.7-99.645,99.645-99.645c54.943,0,99.644,44.7,99.644,99.645c0,13.821-2.783,27.212-8.273,39.8
			c-7.639,17.511-20.089,32.398-36.006,43.055C424.484,511.985,405.34,517.791,385.525,517.791z M385.525,319.502
			c-54.393,0-98.645,44.252-98.645,98.645c0,13.685,2.756,26.94,8.191,39.399c7.561,17.334,19.886,32.073,35.645,42.625
			c16.239,10.872,35.192,16.619,54.809,16.619s38.568-5.747,54.808-16.619c15.758-10.551,28.084-25.29,35.646-42.625
			c5.434-12.46,8.189-25.717,8.189-39.399C484.169,363.754,439.918,319.502,385.525,319.502z M539.824,458.247h-18.59l0.186-0.64
			c3.709-12.762,5.589-26.038,5.589-39.46c0-19.082-3.746-37.615-11.136-55.085c-7.128-16.854-17.323-31.979-30.304-44.959
			c-12.979-12.979-28.105-23.175-44.959-30.304c-17.469-7.389-36.002-11.135-55.085-11.135c-19.082,0-37.615,3.747-55.086,11.135
			c-16.853,7.128-31.979,17.325-44.959,30.304c-12.979,12.979-23.175,28.105-30.304,44.959
			c-7.389,17.469-11.136,36.001-11.136,55.085c0,13.421,1.88,26.697,5.589,39.46l0.186,0.64H58.64c-8.712,0-15.8-7.088-15.8-15.801
			V96.475c0-8.712,7.088-15.8,15.8-15.8h204.883c5.594,0,10.821,3,13.642,7.83l18.068,30.926c2.643,4.524,7.54,7.334,12.779,7.334
			h231.812c8.712,0,15.8,7.088,15.8,15.8v299.879C555.624,451.159,548.536,458.247,539.824,458.247z M522.564,457.247h17.26
			c8.16,0,14.8-6.64,14.8-14.801V142.566c0-8.161-6.64-14.8-14.8-14.8H308.013c-5.594,0-10.821-3-13.642-7.83L276.302,89.01
			c-2.643-4.524-7.539-7.334-12.779-7.334H58.64c-8.161,0-14.8,6.639-14.8,14.8v345.971c0,8.161,6.639,14.801,14.8,14.801h189.845
			c-3.613-12.657-5.444-25.809-5.444-39.1c0-19.218,3.773-37.882,11.215-55.474c7.179-16.974,17.447-32.207,30.518-45.277
			c13.071-13.071,28.305-23.339,45.277-30.518c17.594-7.441,36.259-11.214,55.475-11.214c19.218,0,37.882,3.773,55.474,11.214
			c16.974,7.179,32.207,17.447,45.277,30.518c13.071,13.07,23.34,28.304,30.519,45.277c7.44,17.593,11.214,36.257,11.214,55.474
			C528.009,431.439,526.177,444.59,522.564,457.247z"/>
	</g>
	<g>
		<path d="M433.873,396.727h-26.928v-26.929c0-11.829-9.59-21.42-21.42-21.42s-21.42,9.591-21.42,21.42v26.929h-26.929
			c-11.83,0-21.42,9.59-21.42,21.42s9.59,21.42,21.42,21.42h26.929v18.18v8.748c0,11.83,9.59,21.42,21.42,21.42
			s21.42-9.59,21.42-21.42v-8.748v-18.18h26.928c11.83,0,21.42-9.59,21.42-21.42S445.703,396.727,433.873,396.727z"/>
		<path d="M385.525,488.415c-12.087,0-21.92-9.833-21.92-21.92v-26.428h-26.429c-12.087,0-21.92-9.833-21.92-21.92
			s9.833-21.92,21.92-21.92h26.429v-26.429c0-12.087,9.833-21.92,21.92-21.92s21.92,9.833,21.92,21.92v26.429h26.428
			c12.087,0,21.92,9.833,21.92,21.92s-9.833,21.92-21.92,21.92h-26.428v26.428C407.445,478.582,397.612,488.415,385.525,488.415z
			 M337.177,397.227c-11.535,0-20.92,9.385-20.92,20.92s9.385,20.92,20.92,20.92h27.429v27.428c0,11.535,9.385,20.92,20.92,20.92
			s20.92-9.385,20.92-20.92v-27.428h27.428c11.535,0,20.92-9.385,20.92-20.92s-9.385-20.92-20.92-20.92h-27.428v-27.429
			c0-11.535-9.385-20.92-20.92-20.92s-20.92,9.385-20.92,20.92v27.429H337.177z"/>
	</g>
</g>
<g>
</g>
<g>
</g>
<g>
</g>
<g>
</g>
<g>
</g>
<g>
</g>
<g>
</g>
<g>
</g>
<g>
</g>
<g>
</g>
<g>
</g>
<g>
</g>
<g>
</g>
<g>
</g>
<g>
</g>
</svg>
